<?xml version="1.0" encoding="UTF-8"?>
<svg id="Layer_1" data-name="Layer 1" xmlns="http://www.w3.org/2000/svg" viewBox="0 0 21 22">
  <defs>
    <style>
      .cls-1 {
        fill: #bab59e;
        stroke-width: 0px;
      }
    </style>
  </defs>
  <path class="cls-1" d="M2.64,0C1.18,0,0,1.18,0,2.64s1.18,2.67,2.64,2.67,2.64-1.21,2.64-2.67S4.1,0,2.64,0ZM15.54,7c-2.22,0-3.49,1.16-4.1,2.31h-.06v-2h-4.37v14.69h4.56v-7.27c0-1.92.14-3.77,2.52-3.77,2.34,0,2.37,2.18,2.37,3.89v7.15h4.56v-8.07c0-3.95-.85-6.93-5.46-6.93ZM.36,7.31v14.69h4.56V7.31H.36Z"/>
</svg>